# xmcd CD database file
#
# Track frame offsets:
#	150
#	27335
#	54892
#	72032
#	104750
#	126685
#	154527
#	185482
#	208210
#
# Disc length: 3181 seconds
#
# Revision: 1
# Processed by: cddbd v1.5.2PL0 Copyright (c) Steve Scherf et al.
# Submitted via: CDex 1.51
#
DISCID=820c6b09
DTITLE=Gildo Mahones - Gildo Mahones Trio
DYEAR=1990
DGENRE=Jazz
TTITLE0=If Dreams Come True
TTITLE1=Summertime
TTITLE2=Yardbird Suite
TTITLE3=Estate
TTITLE4=Gee Baby,Ain't I Good To You
TTITLE5=Strollin
TTITLE6=Sounds Of Time
TTITLE7=Danielle
TTITLE8=For All We Know
EXTD=YEAR: 1990
EXTT0=
EXTT1=
EXTT2=
EXTT3=
EXTT4=
EXTT5=
EXTT6=
EXTT7=
EXTT8=
PLAYORDER=
